<svg id="Слой_1" xmlns="http://www.w3.org/2000/svg" viewBox="0 0 24 16"><style>.st0{fill:#ff530d}</style><path id="cc-paypal" xmlns:default="http://www.w3.org/2000/svg" class="st0" d="M7.8 8.1c0-.2-.1-.4-.2-.5-.2-.1-.3-.2-.5-.1-.2 0-.5.1-.7.3-.1.1-.2.3-.2.6 0 .2.1.3.2.5.1.1.3.1.4.1.2 0 .5-.1.7-.3.2-.1.3-.3.3-.6zm8.1-1.5c0-.1 0-.2-.1-.3-.1-.1-.2-.1-.3-.1H15c-.1 0-.1 0-.1.1l-.2 1.1h.3c.2 0 .5 0 .7-.2.2-.2.2-.4.2-.6zm3.7 1.5c0-.2-.1-.4-.2-.5-.1-.1-.3-.2-.5-.2s-.5.1-.6.3c-.2.2-.3.4-.3.7 0 .2.1.3.2.5.1.1.3.1.5.1s.5-.1.6-.3c.2-.1.3-.3.3-.6zM5.3 6.3c0 .5-.2 1-.5 1.4-.3.4-.8.5-1.4.5h-.5c-.1 0-.1 0-.2.1l-.1.1-.1 1.2c0 .1-.1.2-.2.2h-.8s-.1 0-.1-.1v-.1L2 5.4c0-.1.1-.2.2-.2h1.7c.3 0 .7.1 1 .3.3.1.4.5.4.8zm3.3 3.3c0 .1-.1.2-.2.2h-.8c-.1 0-.1-.1-.1-.1v-.2c-.2 0-.3.1-.5.2s-.4.1-.6.1c-.4 0-.7-.1-1-.4-.3-.2-.4-.6-.4-.9 0-.5.2-1 .5-1.3.3-.4.8-.6 1.3-.6.4 0 .8.1 1 .4 0-.2.1-.3.2-.3h.9s.1 0 .1.1v.1l-.4 2.7zm4.6-2.8c0 .1 0 .1 0 0l-2.7 3.9c0 .1-.1.1-.2.1h-.7c-.1 0-.1 0-.1-.1.2-.4.5-.9.9-1.2l-.4-.8-.4-1.3-.2-.6v-.1h.9c.1 0 .2.1.2.2l.5 1.5 1.1-1.6c0-.1.1-.1.2-.1h.9v.1zm4-.5c0 .5-.1 1-.5 1.4-.4.4-.9.5-1.4.5H14.7c-.1 0-.1 0-.2.1l-.1.1-.2 1.2c0 .1-.1.1-.2.1h-.8s-.1 0-.1-.1v-.1l.7-4.2c0-.1.1-.2.2-.2h1.7c.3 0 .7.1 1 .3.4.3.5.6.5.9zm3.2 3.3c0 .1-.1.2-.2.2h-.8c-.1 0-.1-.1-.1-.1V9.4c-.1.1-.3.3-.5.3-.2.1-.4.1-.6.1-.4 0-.7-.1-1-.4-.2-.3-.4-.6-.4-1 0-.5.2-1 .5-1.3.3-.4.8-.6 1.3-.6.4-.1.8.1 1 .4 0-.2.1-.3.2-.3h.8s.1 0 .1.1v.1l-.4 2.7.1.1zm1.6 0c0 .1-.1.2-.2.2h-.7-.1v-.1l.7-4.3c0-.1.1-.1.1-.1h.8c.1 0 .1 0 .1.1v.1L22 9.6zM4.1 6.7c.1-.2 0-.4-.1-.5-.2-.1-.4-.1-.6-.1H3v.1l-.2 1.1h.3c.2 0 .4 0 .6-.1.3-.1.4-.3.4-.5zM23.6.4c-.2-.3-.6-.4-.9-.4H1.3C1 0 .6.1.4.4.1.6 0 1 0 1.3v13.3c0 .4.1.7.4.9.2.4.6.5.9.5h21.3c.7 0 1.3-.6 1.3-1.3V1.3c.1-.3 0-.7-.3-.9z"/></svg>